<mxfile host="app.diagrams.net" modified="2021-03-10T20:45:33.271Z" agent="5.0 (Windows NT 10.0; Win64; x64) AppleWebKit/537.36 (KHTML, like Gecko) Chrome/88.0.4324.190 Safari/537.36" etag="kkdKiCRJ0xPXf-ih-9_-" version="14.4.4" type="github">
  <diagram name="Page-1" id="e7e014a7-5840-1c2e-5031-d8a46d1fe8dd">
    <mxGraphModel dx="700" dy="830" grid="1" gridSize="10" guides="1" tooltips="1" connect="1" arrows="1" fold="1" page="1" pageScale="1" pageWidth="1169" pageHeight="826" background="#ffffff" math="0" shadow="0">
      <root>
        <mxCell id="0" />
        <mxCell id="1" parent="0" />
        <mxCell id="REPwjmIW5YFP4-jN9Q4Z-51" style="edgeStyle=orthogonalEdgeStyle;rounded=0;orthogonalLoop=1;jettySize=auto;html=1;entryX=0;entryY=0.5;entryDx=0;entryDy=0;" edge="1" parent="1" source="REPwjmIW5YFP4-jN9Q4Z-41" target="REPwjmIW5YFP4-jN9Q4Z-42">
          <mxGeometry relative="1" as="geometry" />
        </mxCell>
        <mxCell id="REPwjmIW5YFP4-jN9Q4Z-41" value="Cliente" style="shape=umlActor;verticalLabelPosition=bottom;verticalAlign=top;html=1;" vertex="1" parent="1">
          <mxGeometry x="100" y="150" width="40" height="70" as="geometry" />
        </mxCell>
        <mxCell id="REPwjmIW5YFP4-jN9Q4Z-42" value="El cliente cuando hace su pedido debe solicitar la factura." style="ellipse;whiteSpace=wrap;html=1;" vertex="1" parent="1">
          <mxGeometry x="270" y="60" width="180" height="110" as="geometry" />
        </mxCell>
        <mxCell id="REPwjmIW5YFP4-jN9Q4Z-43" value="El sistema utilizara la información que el cliente ingreso para generar la factura." style="ellipse;whiteSpace=wrap;html=1;" vertex="1" parent="1">
          <mxGeometry x="270" y="220" width="180" height="110" as="geometry" />
        </mxCell>
        <mxCell id="REPwjmIW5YFP4-jN9Q4Z-44" value="&lt;div&gt;El sistema enviará la factura al correo del cliente y guardará la misma en la&lt;/div&gt;&lt;div&gt;base de datos de la empresa.&lt;/div&gt;" style="ellipse;whiteSpace=wrap;html=1;" vertex="1" parent="1">
          <mxGeometry x="270" y="360" width="180" height="110" as="geometry" />
        </mxCell>
        <mxCell id="REPwjmIW5YFP4-jN9Q4Z-45" value="Tanto administradores como meseros pueden ver y enviar las facturas existentes." style="ellipse;whiteSpace=wrap;html=1;" vertex="1" parent="1">
          <mxGeometry x="270" y="500" width="180" height="110" as="geometry" />
        </mxCell>
        <mxCell id="REPwjmIW5YFP4-jN9Q4Z-54" style="edgeStyle=orthogonalEdgeStyle;rounded=0;orthogonalLoop=1;jettySize=auto;html=1;" edge="1" parent="1" source="REPwjmIW5YFP4-jN9Q4Z-47" target="REPwjmIW5YFP4-jN9Q4Z-43">
          <mxGeometry relative="1" as="geometry" />
        </mxCell>
        <mxCell id="REPwjmIW5YFP4-jN9Q4Z-55" style="edgeStyle=orthogonalEdgeStyle;rounded=0;orthogonalLoop=1;jettySize=auto;html=1;entryX=1;entryY=0.618;entryDx=0;entryDy=0;entryPerimeter=0;" edge="1" parent="1" source="REPwjmIW5YFP4-jN9Q4Z-47" target="REPwjmIW5YFP4-jN9Q4Z-44">
          <mxGeometry relative="1" as="geometry" />
        </mxCell>
        <mxCell id="REPwjmIW5YFP4-jN9Q4Z-47" value="Sistema" style="shape=umlActor;verticalLabelPosition=bottom;verticalAlign=top;html=1;" vertex="1" parent="1">
          <mxGeometry x="640" y="260" width="30" height="60" as="geometry" />
        </mxCell>
        <mxCell id="REPwjmIW5YFP4-jN9Q4Z-56" style="edgeStyle=orthogonalEdgeStyle;rounded=0;orthogonalLoop=1;jettySize=auto;html=1;" edge="1" parent="1" source="REPwjmIW5YFP4-jN9Q4Z-49" target="REPwjmIW5YFP4-jN9Q4Z-45">
          <mxGeometry relative="1" as="geometry" />
        </mxCell>
        <mxCell id="REPwjmIW5YFP4-jN9Q4Z-49" value="Administrador&lt;br&gt;Mesero" style="shape=umlActor;verticalLabelPosition=bottom;verticalAlign=top;html=1;" vertex="1" parent="1">
          <mxGeometry x="640" y="490" width="30" height="60" as="geometry" />
        </mxCell>
      </root>
    </mxGraphModel>
  </diagram>
</mxfile>
